<?xml version="1.0" encoding="utf-8"?>
<svg viewBox="0 0 500 500" xmlns="http://www.w3.org/2000/svg">
  <defs>
    <pattern id="pattern-0" x="0" y="0" width="20" height="20" patternUnits="userSpaceOnUse" viewBox="0 0 100 100">
      <path d="M 0 0 L 50 0 L 50 100 L 0 100 Z" style="fill: black;"/>
    </pattern>
  </defs>
  <ellipse cx="107.282" cy="278.975" rx="34.831" ry="40.688" style="fill: rgb(216, 216, 216);" transform="matrix(-1, 0, 0, -1, 0, 0)"/>
  <path d="M -112.5 5.867" style="fill: none; stroke: black;"/>
  <path d="M 114.127 275.821 C 118.154 258.706 124.616 242.134 145.283 194.638 C 156.903 167.934 162.535 149.646 168.969 131.8 C 184.519 88.683 179.908 56.589 193.242 98.825 C 202.414 127.885 212.465 163.328 219.797 210.834 C 226.397 253.596 231.615 280.624 222.639 331.893 C 217.806 359.494 202.982 395.441 167.606 395.441 C 144.828 395.441 130.772 380.486 116.79 347.145 C 104.409 317.621 108.867 298.18 114.127 275.821 Z" style="stroke-opacity: 0.8; stroke: rgb(21, 103, 128); fill: rgb(1, 162, 166); fill-opacity: 0.8; stroke-width: 0;" transform="matrix(0.676921, -0.736056, 0.736056, 0.676921, -120.296795, 200.394429)"/>
  <path d="M 165.854 233.297 C 170.045 215.485 176.77 198.239 198.278 148.809 C 210.371 121.018 216.232 101.985 222.928 83.413 C 239.111 38.54 234.313 5.14 248.189 49.095 C 257.735 79.338 268.195 116.224 275.826 165.664 C 282.694 210.167 288.125 238.295 278.783 291.651 C 273.754 320.376 258.325 357.787 221.51 357.787 C 197.804 357.787 183.177 342.222 168.625 307.524 C 155.74 276.798 160.379 256.566 165.854 233.297 Z" style="stroke-opacity: 0.8; stroke: rgb(21, 103, 128); fill: rgb(1, 162, 166); fill-opacity: 0.8; stroke-width: 0; opacity: 0.6;" transform="matrix(0.981639, -0.190749, 0.190749, 0.981639, -32.763265, 45.902206)"/>
  <path d="M 243.888 229.133 C 248.568 209.243 256.078 189.983 280.096 134.785 C 293.6 103.75 300.146 82.496 307.623 61.756 C 325.695 11.648 320.336 -25.651 335.832 23.434 C 346.491 57.207 358.173 98.397 366.694 153.607 C 374.363 203.304 380.428 234.714 369.997 294.297 C 364.38 326.374 347.152 368.151 306.039 368.151 C 279.567 368.151 263.232 350.77 246.983 312.023 C 232.594 277.71 237.775 255.118 243.888 229.133 Z" style="stroke-opacity: 0.8; stroke: rgb(21, 103, 128); fill: rgb(1, 162, 166); fill-opacity: 0.8; stroke-width: 0; opacity: 0.35;" transform="matrix(0.920481, 0.390787, -0.390787, 0.920481, 96.399882, -105.178322)"/>
</svg>